<svg width="25" height="24" viewBox="0 0 25 24" fill="none" xmlns="http://www.w3.org/2000/svg">
<path d="M22.6724 0H2.27241C1.79502 0 1.33719 0.189642 0.99962 0.527208C0.662054 0.864773 0.472412 1.32261 0.472412 1.8V22.2C0.472412 22.6774 0.662054 23.1352 0.99962 23.4728C1.33719 23.8104 1.79502 24 2.27241 24H22.6724C23.1498 24 23.6076 23.8104 23.9452 23.4728C24.2828 23.1352 24.4724 22.6774 24.4724 22.2V1.8C24.4724 1.32261 24.2828 0.864773 23.9452 0.527208C23.6076 0.189642 23.1498 0 22.6724 0Z" fill="#002E94"/>
<path d="M5.27246 9.03243C7.26746 6.63243 9.66746 5.43243 12.4725 5.43243C15.2775 5.43243 17.6775 6.63243 19.6725 9.03243" stroke="white" stroke-width="2" stroke-linecap="round"/>
<path d="M12.4724 16.2C12.9498 16.2 13.4076 16.0104 13.7452 15.6728C14.0827 15.3352 14.2724 14.8774 14.2724 14.4C14.2724 13.9226 14.0827 13.4648 13.7452 13.1272C13.4076 12.7896 12.9498 12.6 12.4724 12.6C11.995 12.6 11.5371 12.7896 11.1996 13.1272C10.862 13.4648 10.6724 13.9226 10.6724 14.4C10.6724 14.8774 10.862 15.3352 11.1996 15.6728C11.5371 16.0104 11.995 16.2 12.4724 16.2Z" fill="white"/>
<path d="M9.47241 10.2L12.4772 14.4" stroke="white" stroke-width="2" stroke-linecap="round"/>
</svg>
