<svg width="27" height="24" viewBox="0 0 27 24" fill="none" xmlns="http://www.w3.org/2000/svg">
<path d="M3.23209 14.4002C5.19538 17.3442 8.51875 20.5937 13.6726 24C18.8265 20.5937 22.1498 17.3442 24.1131 14.4002H20.0729C19.9132 14.4002 19.7571 14.3523 19.6247 14.2628C19.4924 14.1732 19.3899 14.0461 19.3305 13.8978L16.9992 8.07074L14.4422 17.0194C14.3965 17.1798 14.3018 17.322 14.1712 17.426C14.0407 17.5299 13.8809 17.5905 13.7142 17.5991C13.5476 17.6078 13.3824 17.5641 13.2418 17.4742C13.1012 17.3843 12.9922 17.2527 12.9302 17.0978L10.2948 10.5091L7.93792 14.045C7.86475 14.1544 7.76572 14.244 7.64961 14.306C7.5335 14.368 7.4039 14.4003 7.27229 14.4002H3.23209Z" fill="#002E94"/>
<path d="M2.2802 12.8002C-3.01126 2.68843 7.92848 -3.19945 13.3896 1.82925C13.4856 1.91725 13.58 2.00844 13.6712 2.10284C13.7615 2.00853 13.8554 1.9178 13.9528 1.83085C19.4171 -3.19945 30.3552 2.68843 25.0653 12.8002H20.6123L17.6138 5.30278C17.5517 5.14788 17.4427 5.01627 17.3021 4.92636C17.1616 4.83646 16.9964 4.79278 16.8297 4.80142C16.663 4.81006 16.5033 4.8706 16.3727 4.97455C16.2422 5.07851 16.1474 5.22069 16.1017 5.38118L13.5464 14.3298L11.215 8.50271C11.1608 8.36754 11.0706 8.24975 10.9542 8.16206C10.8379 8.07438 10.6999 8.02011 10.5549 8.00513C10.41 7.99014 10.2638 8.01501 10.132 8.07704C10.0002 8.13907 9.88779 8.23591 9.80698 8.35712L6.84363 12.8002H2.2802Z" fill="#002E94"/>
</svg>
