<svg width="27" height="26" viewBox="0 0 27 26" fill="none" xmlns="http://www.w3.org/2000/svg">
<path d="M23.6725 1V0V1ZM1.47247 2.8H0.472473H1.47247ZM5.50346 9.39317C5.15042 9.81788 5.20852 10.4484 5.63323 10.8014C6.05795 11.1545 6.68844 11.0964 7.04148 10.6716L5.50346 9.39317ZM19.9035 10.6716C20.2565 11.0964 20.887 11.1545 21.3117 10.8014C21.7364 10.4484 21.7945 9.81788 21.4415 9.39317L19.9035 10.6716ZM13.4725 17.2V18.2V17.2ZM15.2725 15.4H16.2725H15.2725ZM11.6725 15.4H10.6725H11.6725ZM11.2858 10.6181C10.9644 10.169 10.3398 10.0654 9.89062 10.3867C9.44145 10.7081 9.33783 11.3327 9.65918 11.7819L11.2858 10.6181ZM12.664 15.9819C12.9853 16.431 13.61 16.5346 14.0591 16.2133C14.5083 15.8919 14.6119 15.2673 14.2906 14.8181L12.664 15.9819ZM23.6725 0H3.27247V2H23.6725V0ZM3.27247 0C2.52987 0 1.81768 0.294999 1.29257 0.820101L2.70679 2.23431C2.85682 2.08429 3.0603 2 3.27247 2V0ZM1.29257 0.820101C0.767472 1.3452 0.472473 2.05739 0.472473 2.8H2.47247C2.47247 2.58783 2.55676 2.38434 2.70679 2.23431L1.29257 0.820101ZM0.472473 2.8V23.2H2.47247V2.8H0.472473ZM0.472473 23.2C0.472473 23.9426 0.767473 24.6548 1.29257 25.1799L2.70679 23.7657C2.55676 23.6157 2.47247 23.4122 2.47247 23.2H0.472473ZM1.29257 25.1799C1.81768 25.705 2.52987 26 3.27247 26V24C3.0603 24 2.85682 23.9157 2.70679 23.7657L1.29257 25.1799ZM3.27247 26H23.6725V24H3.27247V26ZM23.6725 26C24.4151 26 25.1273 25.705 25.6524 25.1799L24.2382 23.7657C24.0881 23.9157 23.8846 24 23.6725 24V26ZM25.6524 25.1799C26.1775 24.6548 26.4725 23.9426 26.4725 23.2H24.4725C24.4725 23.4122 24.3882 23.6157 24.2382 23.7657L25.6524 25.1799ZM26.4725 23.2V2.8H24.4725V23.2H26.4725ZM26.4725 2.8C26.4725 2.05739 26.1775 1.3452 25.6524 0.820101L24.2382 2.23431C24.3882 2.38434 24.4725 2.58783 24.4725 2.8H26.4725ZM25.6524 0.820101C25.1273 0.295 24.4151 0 23.6725 0V2C23.8846 2 24.0881 2.08428 24.2382 2.23431L25.6524 0.820101ZM7.04148 10.6716C8.87066 8.47114 11.0005 7.43241 13.4725 7.43241V5.43241C10.3344 5.43241 7.66429 6.79368 5.50346 9.39317L7.04148 10.6716ZM13.4725 7.43241C15.9444 7.43241 18.0743 8.47114 19.9035 10.6716L21.4415 9.39317C19.2807 6.79368 16.6105 5.43241 13.4725 5.43241V7.43241ZM13.4725 18.2C14.2151 18.2 14.9273 17.905 15.4524 17.3799L14.0382 15.9657C13.8881 16.1157 13.6846 16.2 13.4725 16.2V18.2ZM15.4524 17.3799C15.9775 16.8548 16.2725 16.1426 16.2725 15.4H14.2725C14.2725 15.6122 14.1882 15.8157 14.0382 15.9657L15.4524 17.3799ZM16.2725 15.4C16.2725 14.6574 15.9775 13.9452 15.4524 13.4201L14.0382 14.8343C14.1882 14.9843 14.2725 15.1878 14.2725 15.4H16.2725ZM15.4524 13.4201C14.9273 12.895 14.2151 12.6 13.4725 12.6V14.6C13.6846 14.6 13.8881 14.6843 14.0382 14.8343L15.4524 13.4201ZM13.4725 12.6C12.7299 12.6 12.0177 12.895 11.4926 13.4201L12.9068 14.8343C13.0568 14.6843 13.2603 14.6 13.4725 14.6V12.6ZM11.4926 13.4201C10.9675 13.9452 10.6725 14.6574 10.6725 15.4H12.6725C12.6725 15.1878 12.7568 14.9843 12.9068 14.8343L11.4926 13.4201ZM10.6725 15.4C10.6725 16.1426 10.9675 16.8548 11.4926 17.3799L12.9068 15.9657C12.7568 15.8157 12.6725 15.6122 12.6725 15.4H10.6725ZM11.4926 17.3799C12.0177 17.905 12.7299 18.2 13.4725 18.2V16.2C13.2603 16.2 13.0568 16.1157 12.9068 15.9657L11.4926 17.3799ZM9.65918 11.7819L12.664 15.9819L14.2906 14.8181L11.2858 10.6181L9.65918 11.7819Z" fill="#002E94"/>
</svg>
