<svg width="27" height="24" viewBox="0 0 27 24" fill="none" xmlns="http://www.w3.org/2000/svg">
<path d="M13.6723 4.39684L12.5251 3.21765C9.83238 0.449664 4.89487 1.40486 3.11251 4.88483C2.34132 6.39202 2.12053 8.51681 3.2853 11.2H1.56054C-1.8442 2.08485 8.22441 -2.92791 13.3907 1.82885C13.4867 1.91685 13.5811 2.00805 13.6723 2.10245C13.7626 2.00814 13.8565 1.9174 13.9539 1.83045C19.1218 -2.92791 29.1888 2.08485 25.7841 11.2H24.0593C25.2241 8.51681 25.0033 6.39202 24.2321 4.88483C22.4498 1.40486 17.5122 0.448064 14.8195 3.21605L13.6723 4.39684ZM4.41168 16H6.51564C8.22121 17.8927 10.5524 19.9327 13.6723 22.0719C16.7907 19.9327 19.1234 17.8927 20.829 16H22.9329C20.909 18.5055 17.909 21.1999 13.6723 23.9999C9.43559 21.1999 6.43565 18.5055 4.41168 16Z" fill="#002E94"/>
<path d="M17.6146 5.30237C17.5525 5.14747 17.4435 5.01585 17.303 4.92595C17.1624 4.83605 16.9972 4.79236 16.8306 4.801C16.6639 4.80964 16.5041 4.87018 16.3736 4.97414C16.2431 5.0781 16.1483 5.22028 16.1026 5.38077L13.5458 14.3295L11.2147 8.50235C11.1604 8.36717 11.0702 8.24938 10.9539 8.16169C10.8376 8.074 10.6995 8.01974 10.5546 8.00475C10.4097 7.98977 10.2635 8.01464 10.1317 8.07667C9.99988 8.1387 9.88751 8.23554 9.80671 8.35675L6.84356 12.7999H1.67246C1.46029 12.7999 1.25681 12.8842 1.10678 13.0342C0.956759 13.1843 0.872475 13.3877 0.872475 13.5999C0.872475 13.8121 0.956759 14.0156 1.10678 14.1656C1.25681 14.3156 1.46029 14.3999 1.67246 14.3999H7.27236C7.4041 14.3998 7.53379 14.3672 7.6499 14.305C7.76601 14.2427 7.86496 14.1528 7.93794 14.0431L10.2947 10.5087L12.9299 17.0975C12.9919 17.2524 13.1009 17.384 13.2415 17.4739C13.382 17.5638 13.5472 17.6075 13.7139 17.5989C13.8805 17.5902 14.0403 17.5297 14.1708 17.4257C14.3014 17.3218 14.3961 17.1796 14.4418 17.0191L16.9986 8.07035L19.3297 13.8975C19.3892 14.0458 19.4916 14.1729 19.624 14.2625C19.7563 14.352 19.9124 14.3999 20.0721 14.3999H25.672C25.8842 14.3999 26.0877 14.3156 26.2377 14.1656C26.3877 14.0156 26.472 13.8121 26.472 13.5999C26.472 13.3877 26.3877 13.1843 26.2377 13.0342C26.0877 12.8842 25.8842 12.7999 25.672 12.7999H20.6129L17.6146 5.30237Z" fill="#002E94"/>
</svg>
