<svg width="40" height="40" viewBox="0 0 40 40" fill="none" xmlns="http://www.w3.org/2000/svg">
<circle cx="20" cy="20" r="20" fill="#535927"/>
<path d="M28.5 11V10V11ZM10 12.5H9H10ZM13.231 17.8878C12.8779 18.3125 12.936 18.943 13.3608 19.296C13.7855 19.6491 14.416 19.591 14.769 19.1662L13.231 17.8878ZM25.231 19.1662C25.584 19.591 26.2145 19.6491 26.6392 19.296C27.0639 18.943 27.1221 18.3125 26.769 17.8878L25.231 19.1662ZM20 24.5V25.5V24.5ZM21.5 23H22.5H21.5ZM18.5 23H17.5H18.5ZM18.3133 18.9181C17.9919 18.469 17.3673 18.3654 16.9181 18.6867C16.469 19.0081 16.3654 19.6327 16.6867 20.0819L18.3133 18.9181ZM19.1907 23.5819C19.5121 24.031 20.1367 24.1346 20.5859 23.8133C21.035 23.4919 21.1386 22.8673 20.8173 22.4181L19.1907 23.5819ZM28.5 10H11.5V12H28.5V10ZM11.5 10C10.837 10 10.2011 10.2634 9.73223 10.7322L11.1464 12.1464C11.2402 12.0527 11.3674 12 11.5 12V10ZM9.73223 10.7322C9.26339 11.2011 9 11.837 9 12.5H11C11 12.3674 11.0527 12.2402 11.1464 12.1464L9.73223 10.7322ZM9 12.5V29.5H11V12.5H9ZM9 29.5C9 30.163 9.26339 30.7989 9.73223 31.2678L11.1464 29.8536C11.0527 29.7598 11 29.6326 11 29.5H9ZM9.73223 31.2678C10.2011 31.7366 10.837 32 11.5 32V30C11.3674 30 11.2402 29.9473 11.1464 29.8536L9.73223 31.2678ZM11.5 32H28.5V30H11.5V32ZM28.5 32C29.163 32 29.7989 31.7366 30.2678 31.2678L28.8536 29.8536C28.7598 29.9473 28.6326 30 28.5 30V32ZM30.2678 31.2678C30.7366 30.7989 31 30.163 31 29.5H29C29 29.6326 28.9473 29.7598 28.8536 29.8536L30.2678 31.2678ZM31 29.5V12.5H29V29.5H31ZM31 12.5C31 11.837 30.7366 11.2011 30.2678 10.7322L28.8536 12.1464C28.9473 12.2402 29 12.3674 29 12.5H31ZM30.2678 10.7322C29.7989 10.2634 29.163 10 28.5 10V12C28.6326 12 28.7598 12.0527 28.8536 12.1464L30.2678 10.7322ZM14.769 19.1662C16.2657 17.3657 17.9955 16.527 20 16.527V14.527C17.3295 14.527 15.0593 15.6883 13.231 17.8878L14.769 19.1662ZM20 16.527C22.0045 16.527 23.7343 17.3657 25.231 19.1662L26.769 17.8878C24.9407 15.6883 22.6705 14.527 20 14.527V16.527ZM20 25.5C20.663 25.5 21.2989 25.2366 21.7678 24.7678L20.3536 23.3536C20.2598 23.4473 20.1326 23.5 20 23.5V25.5ZM21.7678 24.7678C22.2366 24.2989 22.5 23.663 22.5 23H20.5C20.5 23.1326 20.4473 23.2598 20.3536 23.3536L21.7678 24.7678ZM22.5 23C22.5 22.337 22.2366 21.7011 21.7678 21.2322L20.3536 22.6464C20.4473 22.7402 20.5 22.8674 20.5 23H22.5ZM21.7678 21.2322C21.2989 20.7634 20.663 20.5 20 20.5V22.5C20.1326 22.5 20.2598 22.5527 20.3536 22.6464L21.7678 21.2322ZM20 20.5C19.337 20.5 18.7011 20.7634 18.2322 21.2322L19.6464 22.6464C19.7402 22.5527 19.8674 22.5 20 22.5V20.5ZM18.2322 21.2322C17.7634 21.7011 17.5 22.337 17.5 23H19.5C19.5 22.8674 19.5527 22.7402 19.6464 22.6464L18.2322 21.2322ZM17.5 23C17.5 23.663 17.7634 24.2989 18.2322 24.7678L19.6464 23.3536C19.5527 23.2598 19.5 23.1326 19.5 23H17.5ZM18.2322 24.7678C18.7011 25.2366 19.337 25.5 20 25.5V23.5C19.8674 23.5 19.7402 23.4473 19.6464 23.3536L18.2322 24.7678ZM16.6867 20.0819L19.1907 23.5819L20.8173 22.4181L18.3133 18.9181L16.6867 20.0819Z" fill="white"/>
</svg>
