<svg width="40" height="40" viewBox="0 0 40 40" fill="none" xmlns="http://www.w3.org/2000/svg">
<circle cx="20" cy="20" r="20" fill="#4F6C3B"/>
<path d="M18.3333 25.5556H21.6667V21.6667H25.5556V18.3333H21.6667V14.4444H18.3333V18.3333H14.4444V21.6667H18.3333V25.5556ZM12.2222 30C11.6111 30 11.0878 29.7826 10.6522 29.3478C10.2174 28.9122 10 28.3889 10 27.7778V12.2222C10 11.6111 10.2174 11.0878 10.6522 10.6522C11.0878 10.2174 11.6111 10 12.2222 10H27.7778C28.3889 10 28.9122 10.2174 29.3478 10.6522C29.7826 11.0878 30 11.6111 30 12.2222V27.7778C30 28.3889 29.7826 28.9122 29.3478 29.3478C28.9122 29.7826 28.3889 30 27.7778 30H12.2222ZM12.2222 27.7778H27.7778V12.2222H12.2222V27.7778ZM12.2222 12.2222V27.7778V12.2222Z" fill="white"/>
</svg>
