<svg width="40" height="40" viewBox="0 0 40 40" fill="none" xmlns="http://www.w3.org/2000/svg">
<circle cx="20" cy="20" r="20" fill="#5B6459"/>
<path fill-rule="evenodd" clip-rule="evenodd" d="M25.5556 15.5556C25.5556 18.6239 23.0683 21.1111 20 21.1111C16.9317 21.1111 14.4444 18.6239 14.4444 15.5556C14.4444 12.4872 16.9317 10 20 10C23.0683 10 25.5556 12.4872 25.5556 15.5556ZM24.4444 15.5556C24.4444 16.7343 23.9762 17.8648 23.1427 18.6983C22.3092 19.5317 21.1787 20 20 20C18.8213 20 17.6908 19.5317 16.8573 18.6983C16.0238 17.8648 15.5556 16.7343 15.5556 15.5556C15.5556 14.3768 16.0238 13.2464 16.8573 12.4129C17.6908 11.5794 18.8213 11.1111 20 11.1111C21.1787 11.1111 22.3092 11.5794 23.1427 12.4129C23.9762 13.2464 24.4444 14.3768 24.4444 15.5556ZM16.6189 22.6972L16.625 22.7094L16.6667 22.7911H23.1939C23.3211 22.55 23.6094 22.1656 23.8889 22.2294C24.5167 22.3722 25.1489 22.5711 25.7561 22.8161L25.7744 22.8072L25.7806 22.8194L25.785 22.8278C28.0711 23.7567 30 25.3311 30 26.9833V30H10V26.9833C10 24.8861 13.1089 22.9128 16.1111 22.2294C16.3561 22.1739 16.5017 22.4628 16.6189 22.6972ZM24.8356 23.6572C24.5972 23.5738 24.3562 23.4984 24.1128 23.4311L23.865 23.9022H15.9961L15.7661 23.465L15.5661 23.525C15.5622 23.5617 15.5589 23.6028 15.5572 23.6494C15.55 23.8411 15.5644 24.0683 15.5961 24.2994C15.6286 24.5405 15.6806 24.7785 15.7517 25.0111C16.1419 25.0573 16.5033 25.24 16.772 25.5268C17.0406 25.8136 17.1993 26.1862 17.2199 26.5786C17.2406 26.971 17.1219 27.3582 16.8848 27.6716C16.6478 27.985 16.3076 28.2046 15.9243 28.2916C15.5411 28.3785 15.1394 28.3272 14.7903 28.1468C14.4412 27.9664 14.1671 27.6684 14.0164 27.3054C13.8656 26.9425 13.848 26.538 13.9666 26.1633C14.0852 25.7886 14.3323 25.4679 14.6644 25.2578L14.66 25.2422C14.586 24.9825 14.5308 24.7177 14.495 24.45C14.4714 24.279 14.4559 24.1069 14.4483 23.9344C13.7617 24.2278 13.1211 24.5822 12.5844 24.9733C11.5167 25.7533 11.1111 26.4822 11.1111 26.9833V28.8889H28.8889V26.9833C28.8889 26.4817 28.4833 25.7528 27.4156 24.9739C26.95 24.6391 26.4541 24.3486 25.9344 24.1061C25.9118 24.4072 25.8658 24.7061 25.7967 25H26.1111C26.2143 25.0001 26.3153 25.0288 26.4031 25.0831C26.4908 25.1373 26.5617 25.215 26.6078 25.3072L27.1633 26.4183C27.2022 26.4956 27.2222 26.5806 27.2222 26.6667V27.7778C27.2222 27.9251 27.1637 28.0664 27.0595 28.1706C26.9553 28.2748 26.814 28.3333 26.6667 28.3333H25.5556V27.2222H26.1111V26.7978L25.7678 26.1111H24.2322L23.8889 26.7978V27.2222H24.4444V28.3333H23.3333C23.186 28.3333 23.0447 28.2748 22.9405 28.1706C22.8363 28.0664 22.7778 27.9251 22.7778 27.7778V26.6667C22.7778 26.5806 22.7978 26.4956 22.8367 26.4183L23.3922 25.3072C23.4383 25.215 23.5092 25.1373 23.5969 25.0831C23.6847 25.0288 23.7857 25.0001 23.8889 25H24.6456C24.6522 24.9778 24.6594 24.9556 24.6661 24.9311C24.7183 24.7528 24.765 24.5311 24.7967 24.3C24.8278 24.0711 24.8422 23.8472 24.8356 23.6572ZM16.1111 26.6667C16.1111 26.9856 15.8544 27.2306 15.5556 27.2306C15.2567 27.2306 15 26.9861 15 26.6667C15 26.3478 15.2567 26.1028 15.5556 26.1028C15.8544 26.1028 16.1111 26.3472 16.1111 26.6667Z" fill="white"/>
</svg>
