<svg width="40" height="40" viewBox="0 0 40 40" fill="none" xmlns="http://www.w3.org/2000/svg">
<circle cx="20" cy="20" r="20" fill="#455F30"/>
<path d="M19.9998 14.664L19.1036 13.6813C16.9999 11.3747 13.1425 12.1707 11.75 15.0707C11.1475 16.3267 10.975 18.0973 11.885 20.3333H10.5375C7.87757 12.7374 15.7437 8.56005 19.7799 12.524C19.8548 12.5974 19.9286 12.6734 19.9998 12.752C20.0704 12.6734 20.1438 12.5978 20.2198 12.5254C24.2573 8.56005 32.1221 12.7374 29.4622 20.3333H28.1147C29.0247 18.0973 28.8522 16.3267 28.2497 15.0707C26.8572 12.1707 22.9998 11.3734 20.8961 13.68L19.9998 14.664ZM12.765 24.3333H14.4087C15.7412 25.9106 17.5624 27.6106 19.9998 29.3932C22.4361 27.6106 24.2585 25.9106 25.591 24.3333H27.2347C25.6535 26.4213 23.3098 28.6666 19.9998 30.9999C16.6899 28.6666 14.3462 26.4213 12.765 24.3333Z" fill="white"/>
<path d="M23.0798 15.4186C23.0313 15.2895 22.9461 15.1799 22.8363 15.105C22.7265 15.03 22.5974 14.9936 22.4672 15.0008C22.3371 15.008 22.2122 15.0585 22.1103 15.1451C22.0083 15.2317 21.9342 15.3502 21.8985 15.484L19.9011 22.9412L18.0799 18.0853C18.0374 17.9726 17.967 17.8745 17.8761 17.8014C17.7852 17.7283 17.6774 17.6831 17.5642 17.6706C17.451 17.6581 17.3367 17.6789 17.2338 17.7305C17.1308 17.7822 17.043 17.8629 16.9799 17.9639L14.6649 21.6666H10.625C10.4592 21.6666 10.3003 21.7368 10.1831 21.8619C10.0658 21.9869 10 22.1564 10 22.3333C10 22.5101 10.0658 22.6796 10.1831 22.8047C10.3003 22.9297 10.4592 22.9999 10.625 22.9999H14.9999C15.1028 22.9999 15.2042 22.9727 15.2949 22.9208C15.3856 22.8689 15.4629 22.794 15.5199 22.7026L17.3611 19.7573L19.4198 25.2479C19.4683 25.377 19.5534 25.4867 19.6633 25.5616C19.7731 25.6365 19.9021 25.6729 20.0323 25.6657C20.1625 25.6585 20.2874 25.6081 20.3893 25.5214C20.4913 25.4348 20.5653 25.3163 20.6011 25.1826L22.5985 17.7253L24.4197 22.5813C24.4662 22.7048 24.5462 22.8108 24.6496 22.8854C24.753 22.96 24.8749 22.9999 24.9997 22.9999H29.3746C29.5404 22.9999 29.6994 22.9297 29.8166 22.8047C29.9338 22.6796 29.9996 22.5101 29.9996 22.3333C29.9996 22.1564 29.9338 21.9869 29.8166 21.8619C29.6994 21.7368 29.5404 21.6666 29.3746 21.6666H25.4222L23.0798 15.4186Z" fill="white"/>
</svg>
