<svg width="25" height="24" viewBox="0 0 25 24" fill="none" xmlns="http://www.w3.org/2000/svg">
<path fill-rule="evenodd" clip-rule="evenodd" d="M19.1391 6.66667C19.1391 10.3487 16.1545 13.3333 12.4725 13.3333C8.79047 13.3333 5.80581 10.3487 5.80581 6.66667C5.80581 2.98467 8.79047 0 12.4725 0C16.1545 0 19.1391 2.98467 19.1391 6.66667ZM17.8058 6.66667C17.8058 8.08115 17.2439 9.43771 16.2437 10.4379C15.2435 11.4381 13.887 12 12.4725 12C11.058 12 9.70143 11.4381 8.70124 10.4379C7.70104 9.43771 7.13914 8.08115 7.13914 6.66667C7.13914 5.25218 7.70104 3.89562 8.70124 2.89543C9.70143 1.89524 11.058 1.33333 12.4725 1.33333C13.887 1.33333 15.2435 1.89524 16.2437 2.89543C17.2439 3.89562 17.8058 5.25218 17.8058 6.66667ZM8.41514 15.2367L8.42247 15.2513L8.47247 15.3493H16.3051C16.4578 15.06 16.8038 14.5987 17.1391 14.6753C17.8925 14.8467 18.6511 15.0853 19.3798 15.3793L19.4018 15.3687L19.4091 15.3833L19.4145 15.3933C22.1578 16.508 24.4725 18.3973 24.4725 20.38V24H0.472473V20.38C0.472473 17.8633 4.20314 15.4953 7.80581 14.6753C8.09981 14.6087 8.27447 14.9553 8.41514 15.2367ZM18.2751 16.3887C17.9891 16.2886 17.6999 16.1981 17.4078 16.1173L17.1105 16.6827H7.66781L7.39181 16.158L7.15181 16.23C7.14714 16.274 7.14314 16.3233 7.14114 16.3793C7.13247 16.6093 7.14981 16.882 7.18781 17.1593C7.22681 17.4486 7.28924 17.7342 7.37447 18.0133C7.84279 18.0688 8.27643 18.288 8.59882 18.6322C8.92121 18.9764 9.11161 19.4234 9.1364 19.8943C9.16119 20.3653 9.01877 20.8298 8.73429 21.2059C8.44981 21.582 8.04158 21.8455 7.58168 21.9499C7.12178 22.0542 6.6398 21.9927 6.22086 21.7762C5.80193 21.5596 5.47298 21.202 5.29211 20.7665C5.11124 20.331 5.09009 19.8456 5.23239 19.3959C5.37469 18.9463 5.67129 18.5615 6.06981 18.3093L6.06447 18.2907C5.97564 17.979 5.90947 17.6612 5.86647 17.34C5.83819 17.1348 5.8195 16.9283 5.81047 16.7213C4.98647 17.0733 4.21781 17.4987 3.57381 17.968C2.29247 18.904 1.80581 19.7787 1.80581 20.38V22.6667H23.1391V20.38C23.1391 19.778 22.6525 18.9033 21.3711 17.9687C20.8124 17.5669 20.2174 17.2183 19.5938 16.9273C19.5667 17.2886 19.5114 17.6473 19.4285 18H19.8058C19.9296 18.0001 20.0509 18.0346 20.1562 18.0997C20.2614 18.1648 20.3465 18.2579 20.4018 18.3687L21.0685 19.702C21.1151 19.7947 21.1391 19.8967 21.1391 20V21.3333C21.1391 21.5101 21.0689 21.6797 20.9439 21.8047C20.8189 21.9298 20.6493 22 20.4725 22H19.1391V20.6667H19.8058V20.1573L19.3938 19.3333H17.5511L17.1391 20.1573V20.6667H17.8058V22H16.4725C16.2957 22 16.1261 21.9298 16.0011 21.8047C15.876 21.6797 15.8058 21.5101 15.8058 21.3333V20C15.8058 19.8967 15.8298 19.7947 15.8765 19.702L16.5431 18.3687C16.5985 18.2579 16.6835 18.1648 16.7888 18.0997C16.8941 18.0346 17.0154 18.0001 17.1391 18H18.0471C18.0551 17.9733 18.0638 17.9467 18.0718 17.9173C18.1345 17.7033 18.1905 17.4373 18.2285 17.16C18.2658 16.8853 18.2831 16.6167 18.2751 16.3887ZM7.80581 20C7.80581 20.3827 7.49781 20.6767 7.13914 20.6767C6.78047 20.6767 6.47247 20.3833 6.47247 20C6.47247 19.6173 6.78047 19.3233 7.13914 19.3233C7.49781 19.3233 7.80581 19.6167 7.80581 20Z" fill="#002E94"/>
</svg>
